HIERARCHY
ROOT Hips
{
	OFFSET 0.000000 0.000000 0.000000
	CHANNELS 6 Xposition Yposition Zposition Xrotation Yrotation Zrotation
	JOINT LeftUpLeg_virtual
	{
		OFFSET 0.000000 0.000000 0.000000
		CHANNELS 3 Xrotation Yrotation Zrotation
		JOINT LeftUpLeg
		{
			OFFSET 10.205400 -3.823500 0.155100
			CHANNELS 3 Xrotation Yrotation Zrotation
			JOINT LeftLeg
			{
				OFFSET 0.708757 -12.982077 0.567790
				CHANNELS 3 Xrotation Yrotation Zrotation
				JOINT LeftFoot
				{
					OFFSET -0.708756 -10.717838 -2.184338
					CHANNELS 3 Xrotation Yrotation Zrotation
					JOINT LeftToeBase
					{
						OFFSET 0.108149 -7.191104 7.560241
						CHANNELS 3 Xrotation Yrotation Zrotation
						JOINT LeftToe_End
						{
							OFFSET 0.070230 0.081724 4.490308
							CHANNELS 3 Xrotation Yrotation Zrotation
							End Site
							{
								OFFSET 0 0 0
							}
						}
					}
				}
			}
		}
	}
	JOINT RightUpLeg_virtual
	{
		OFFSET 0.000000 0.000000 0.000000
		CHANNELS 3 Xrotation Yrotation Zrotation
		JOINT RightUpLeg
		{
			OFFSET -10.205400 -3.823500 0.005500
			CHANNELS 3 Xrotation Yrotation Zrotation
			JOINT RightLeg
			{
				OFFSET -0.708756 -12.982134 0.610632
				CHANNELS 3 Xrotation Yrotation Zrotation
				JOINT RightFoot
				{
					OFFSET 0.708754 -10.717769 -1.945823
					CHANNELS 3 Xrotation Yrotation Zrotation
					JOINT RightToeBase
					{
						OFFSET -0.108140 -7.191069 7.372968
						CHANNELS 3 Xrotation Yrotation Zrotation
						JOINT RightToe_End
						{
							OFFSET -0.070227 0.081735 4.479403
							CHANNELS 3 Xrotation Yrotation Zrotation
							End Site
							{
								OFFSET 0 0 0
							}
						}
					}
				}
			}
		}
	}
	JOINT Spine_virtual
	{
		OFFSET 0.000000 0.000000 0.000000
		CHANNELS 3 Xrotation Yrotation Zrotation
		JOINT Spine
		{
			OFFSET 0.000000 6.876099 0.125700
			CHANNELS 3 Xrotation Yrotation Zrotation
			JOINT Spine1
			{
				OFFSET 0.000000 5.730043 0.104720
				CHANNELS 3 Xrotation Yrotation Zrotation
				JOINT Spine1_split
				{
					OFFSET 0.000000 5.730043 0.104720
					CHANNELS 3 Xrotation Yrotation Zrotation
					JOINT Spine2
					{
						OFFSET 0.000000 5.730043 0.104720
						CHANNELS 3 Xrotation Yrotation Zrotation
						JOINT Neck_virtual
						{
							OFFSET 0.000000 0.000000 0.000000
							CHANNELS 3 Xrotation Yrotation Zrotation
							JOINT Neck
							{
								OFFSET 0.000000 10.314075 0.188496
								CHANNELS 3 Xrotation Yrotation Zrotation
								JOINT Head
								{
									OFFSET 0.000000 7.643700 -2.377400
									CHANNELS 3 Xrotation Yrotation Zrotation
									JOINT HeadTop_End
									{
										OFFSET 0.000000 43.788605 -13.619600
										CHANNELS 3 Xrotation Yrotation Zrotation
										End Site
										{
											OFFSET 0 0 0
										}
									}
								}
							}
						}
						JOINT LeftShoulder_virtual
						{
							OFFSET 0.000000 0.000000 0.000000
							CHANNELS 3 Xrotation Yrotation Zrotation
							JOINT LeftShoulder
							{
								OFFSET 2.196100 4.412489 0.087492
								CHANNELS 3 Xrotation Yrotation Zrotation
								JOINT LeftShoulder_split
								{
									OFFSET 2.196100 4.412489 0.087492
									CHANNELS 3 Xrotation Yrotation Zrotation
									JOINT LeftArm
									{
										OFFSET 8.771219 -2.981674 -0.026999
										CHANNELS 3 Xrotation Yrotation Zrotation
										JOINT LeftForeArm
										{
											OFFSET 8.512804 0.000000 -0.000000
											CHANNELS 3 Xrotation Yrotation Zrotation
											JOINT LeftHand
											{
												OFFSET 18.484802 0.000000 -0.000000
												CHANNELS 3 Xrotation Yrotation Zrotation
												End Site
												{
													OFFSET 0 0 0
												}
											}
										}
									}
								}
							}
						}
						JOINT RightShoulder_virtual
						{
							OFFSET 0.000000 0.000000 0.000000
							CHANNELS 3 Xrotation Yrotation Zrotation
							JOINT RightShoulder
							{
								OFFSET -2.196100 4.412496 0.070690
								CHANNELS 3 Xrotation Yrotation Zrotation
								JOINT RightShoulder_split
								{
									OFFSET -2.196100 4.412496 0.070690
									CHANNELS 3 Xrotation Yrotation Zrotation
									JOINT RightArm
									{
										OFFSET -8.771282 -2.981682 -0.094208
										CHANNELS 3 Xrotation Yrotation Zrotation
										JOINT RightForeArm
										{
											OFFSET -8.494598 0.000000 0.000000
											CHANNELS 3 Xrotation Yrotation Zrotation
											JOINT RightHand
											{
												OFFSET -18.483803 0.000000 0.000001
												CHANNELS 3 Xrotation Yrotation Zrotation
												End Site
												{
													OFFSET 0 0 0
												}
											}
										}
									}
								}
							}
						}
					}
				}
			}
		}
	}
}
MOTION
Frames: 4
Frame Time: 0.03333333
-2.150754 26.405445 -50.617424 0.000000 0.000000 0.000000 164.025791 -70.663915 158.062339 -52.177236 -8.634359 37.760260 39.954411 -8.178103 -0.279706 26.451432 4.754941 -13.037339 2.727861 2.254049 1.369890 0.000000 0.000000 0.000000 158.543772 -71.775562 153.062804 -42.602239 0.211369 -29.216872 44.891388 2.299580 2.147448 0.776610 -0.805584 11.736685 -7.144567 -0.437632 0.956937 0.000000 0.000000 0.000000 162.654685 -73.762997 157.022661 5.704868 8.171956 -0.881900 -0.412086 12.497083 2.835307 0.107159 2.817211 1.139531 0.000000 0.000000 0.000000 9.262511 14.469397 0.367594 5.085164 9.456676 -5.803102 -8.773443 16.721169 7.518805 0.000000 0.000000 0.000000 6.501423 15.125145 0.357442 6.736327 10.326527 -11.621718 10.873257 0.553142 -1.132669 -52.676939 -34.440908 -47.208181 22.092238 -86.360352 18.202886 0.000000 0.000000 0.000000 7.373322 15.011608 1.512708 -13.440503 2.177406 -3.079364 10.967462 0.108387 -6.741279 -91.910768 38.211343 109.666371 -8.014303 40.326823 4.704951 0.000000 0.000000 0.000000 
-1.180987 26.496502 -52.763710 0.000000 0.000000 0.000000 162.509079 -72.336614 156.780504 -52.625952 -7.369863 36.250017 39.817496 -7.738442 0.322518 24.060607 4.250409 -14.625493 1.160232 2.029161 1.132946 0.000000 0.000000 0.000000 159.809146 -72.626317 154.750025 -42.891071 -3.278298 -23.478803 50.988117 -0.560814 3.012644 -3.111735 -3.501338 9.562728 -8.055701 -0.076830 0.658855 0.000000 0.000000 0.000000 163.987842 -73.007742 158.289265 6.309205 7.678455 -0.914783 -0.607814 11.685554 3.084477 0.173987 2.735455 1.033567 0.000000 0.000000 0.000000 9.366170 13.808884 0.498558 4.360843 10.178260 -6.733109 -10.206972 17.415840 8.122606 0.000000 0.000000 0.000000 6.591949 14.318780 0.617997 6.268432 9.893213 -11.216751 11.775131 3.460354 -1.778122 -52.784832 -34.712299 -47.824360 27.153497 -87.022901 23.008122 0.000000 0.000000 0.000000 7.375558 14.208312 1.678451 -13.388790 1.306156 -3.572910 11.222384 -0.245827 -7.820925 -92.345086 39.476287 110.149696 -7.794804 39.901870 4.521823 0.000000 0.000000 0.000000 
-0.441327 26.507410 -54.116188 0.000000 0.000000 0.000000 160.398141 -74.398307 154.731720 -54.752777 -6.772395 34.440399 42.568973 -7.379319 0.682396 20.488860 3.995068 -15.343429 -1.130912 1.882583 0.565489 0.000000 0.000000 0.000000 160.967710 -73.309035 156.107812 -42.056381 -5.710578 -19.075506 54.592172 -2.364234 3.058392 -7.276453 -5.509354 8.586715 -8.594996 0.406950 0.416421 0.000000 0.000000 0.000000 164.419005 -72.442298 158.712190 6.667384 7.600648 -0.781406 -0.814740 11.091377 3.234730 0.090241 2.383997 1.013482 0.000000 0.000000 0.000000 9.596615 13.339541 0.517534 3.640408 10.577783 -7.678793 -11.269950 17.977113 8.220495 0.000000 0.000000 0.000000 6.698932 13.727772 0.735819 5.829578 9.699108 -11.039162 12.349134 5.933524 -1.772944 -53.269707 -34.892947 -48.552813 24.837985 -87.035618 20.417635 0.000000 0.000000 0.000000 7.453608 13.612554 1.723156 -13.347205 0.687236 -3.988064 10.996320 -0.948403 -8.387116 -92.794397 41.018500 110.567840 -7.427309 39.756567 4.247569 0.000000 0.000000 0.000000 
-0.088753 26.488064 -54.814636 0.000000 0.000000 0.000000 157.578707 -76.323635 151.904623 -57.501689 -6.123615 33.407012 46.147470 -7.011973 0.456664 17.542863 4.216452 -14.951429 -1.722812 1.923429 -0.570489 0.000000 0.000000 0.000000 161.088031 -73.871993 156.188490 -40.888210 -6.857159 -16.761453 54.958222 -2.799033 2.437905 -10.813529 -6.544376 8.434352 -7.708390 0.858906 0.543094 0.000000 0.000000 0.000000 164.192379 -72.307948 158.600544 6.857413 7.818266 -0.684128 -0.949519 10.700269 3.249572 -0.083880 1.799333 0.937485 0.000000 0.000000 0.000000 9.772909 13.053502 0.459710 2.883248 10.698161 -8.395351 -11.672974 18.358355 7.957510 0.000000 0.000000 0.000000 6.804504 13.331812 0.712593 5.440273 9.879846 -10.811489 12.229455 7.826023 -1.302032 -53.937171 -34.839443 -49.318566 17.497932 -86.325975 12.814217 0.000000 0.000000 0.000000 7.551681 13.214761 1.658552 -13.313196 0.197682 -4.259353 10.508154 -1.408421 -8.863914 -93.474957 42.683471 111.140674 -6.921226 39.356469 3.917608 0.000000 0.000000 0.000000 
